<?xml version="1.0" encoding="UTF-8" standalone="no"?>
<!-- Created with Inkscape (http://www.inkscape.org/) -->

<svg
   width="2560"
   height="480"
   viewBox="0 0 677.33334 127"
   version="1.1"
   id="svg22507"
   inkscape:version="1.1.1 (3bf5ae0d25, 2021-09-20)"
   sodipodi:docname="DS-logo-full.svg"
   xmlns:inkscape="http://www.inkscape.org/namespaces/inkscape"
   xmlns:sodipodi="http://sodipodi.sourceforge.net/DTD/sodipodi-0.dtd"
   xmlns="http://www.w3.org/2000/svg"
   xmlns:svg="http://www.w3.org/2000/svg"
   xmlns:rdf="http://www.w3.org/1999/02/22-rdf-syntax-ns#"
   xmlns:cc="http://creativecommons.org/ns#"
   xmlns:dc="http://purl.org/dc/elements/1.1/">
  <title
     id="title972">The Digital Stockade Logo</title>
  <sodipodi:namedview
     id="namedview22509"
     pagecolor="#ffffff"
     bordercolor="#666666"
     borderopacity="1.0"
     inkscape:pageshadow="2"
     inkscape:pageopacity="0.0"
     inkscape:pagecheckerboard="0"
     inkscape:document-units="px"
     showgrid="true"
     units="px"
     inkscape:zoom="0.27464868"
     inkscape:cx="1206.9965"
     inkscape:cy="340.43492"
     inkscape:window-width="1284"
     inkscape:window-height="1041"
     inkscape:window-x="2103"
     inkscape:window-y="18"
     inkscape:window-maximized="0"
     inkscape:current-layer="layer1">
    <inkscape:grid
       type="xygrid"
       id="grid22623" />
  </sodipodi:namedview>
  <defs
     id="defs22504">
    <marker
       style="overflow:visible"
       id="Arrow1Lend"
       refX="0"
       refY="0"
       orient="auto"
       inkscape:stockid="Arrow1Lend"
       inkscape:isstock="true">
      <path
         transform="matrix(-0.8,0,0,-0.8,-10,0)"
         style="fill:context-stroke;fill-rule:evenodd;stroke:context-stroke;stroke-width:1pt"
         d="M 0,0 5,-5 -12.5,0 5,5 Z"
         id="path56964" />
    </marker>
    <marker
       style="overflow:visible"
       id="Arrow1Lstart"
       refX="0"
       refY="0"
       orient="auto"
       inkscape:stockid="Arrow1Lstart"
       inkscape:isstock="true">
      <path
         transform="matrix(0.8,0,0,0.8,10,0)"
         style="fill:context-stroke;fill-rule:evenodd;stroke:context-stroke;stroke-width:1pt"
         d="M 0,0 5,-5 -12.5,0 5,5 Z"
         id="path56961" />
    </marker>
  </defs>
  <g
     inkscape:label="Layer 1"
     inkscape:groupmode="layer"
     id="layer1">
    <path
       style="fill:#5f5e58;fill-opacity:1;stroke:#2f4f4f;stroke-width:0.663382;stroke-opacity:1"
       d="m 297.55917,53.757664 c -4.20726,-0.127246 -4.21492,-0.128899 -4.24117,-0.994516 -0.085,-2.818758 -0.89129,-9.909574 -1.18,-10.382168 -0.18798,-0.307833 -0.63621,-0.559715 -0.99595,-0.559715 -0.78551,0 -1.65139,-0.988383 -1.65139,-1.885042 0,-0.35626 0.54996,-0.986304 1.22206,-1.400109 1.71528,-1.056053 2.3285,-4.031353 2.02556,-9.828064 -0.25178,-4.815024 -0.60932,-5.924284 -2.26496,-7.023577 -1.36507,-0.906347 -1.22978,-1.72264 0.50256,-3.03267 1.30239,-0.984881 1.5304,-1.448854 1.85254,-3.769181 0.26446,-1.90692 0.74212,-3.137415 1.70894,-4.405137 1.25491,-1.6453691 5.78198,-6.1944557 7.95721,-7.9958515 l 0.96548,-0.7996017 0.94623,0.7996017 c 0.52045,0.4397597 2.56046,2.5986475 4.53336,4.7975143 3.7256,4.1523102 5.11784,6.5434082 5.11784,8.7895322 0,0.724481 0.25987,1.489938 0.57805,1.701047 0.344,0.228398 2.00175,0.383782 4.09448,0.383782 h 3.5164 v -3.013547 c 0,-2.889679 0.0794,-3.116722 1.93828,-5.5235487 1.8275,-2.3665805 7.34954,-7.4581118 8.08175,-7.4516538 0.48928,0.0041 7.68095,7.4033338 8.59923,8.8472045 0.42839,0.673543 0.96521,2.424501 1.19297,3.891026 0.22758,1.466527 0.53652,2.797826 0.68601,2.958468 0.14975,0.160587 1.77225,0.292051 3.60615,0.292051 3.79204,0 3.59587,0.167722 3.99777,-3.419458 0.13355,-1.191799 0.73153,-2.719902 1.50191,-3.838031 1.36751,-1.9845351 8.26883,-9.0556332 8.83445,-9.0517102 0.62886,0.0041 5.90339,5.219628 7.64435,7.5584828 1.45878,1.9598354 1.77684,2.7781704 2.03994,5.2479054 0.32215,3.025334 0.93401,3.822647 2.93341,3.822647 1.20444,0 1.93109,0.671277 1.93109,1.783909 0,1.141686 -0.58842,1.579321 -2.56677,1.909006 -2.14607,0.357632 -2.38666,1.260445 -2.04178,7.661222 0.4202,7.798414 0.40659,7.759539 2.98436,8.493213 1.67232,0.475957 2.10588,0.761512 2.10588,1.387087 0,0.79454 -1.65741,1.912102 -3.37142,2.273295 -1.48027,0.311959 -1.92732,1.955192 -1.92732,7.084192 v 4.909725 l -3.01064,-0.0011 c -1.65584,-5.54e-4 -6.09958,-0.09493 -9.87487,-0.209687 l -6.86428,-0.208388 -0.002,-2.269065 c -9.1e-4,-1.248161 -0.14275,-3.888403 -0.3143,-5.867382 l -0.31236,-3.598141 h -4.0208 -4.02086 v 6.076866 6.076865 h -9.87492 -9.87486 v -6.076865 -6.076866 h -4.02325 -4.02316 l -0.26901,5.197327 c -0.28614,5.528198 -0.44924,6.144057 -1.71711,6.482104 -1.03863,0.276943 -9.23796,0.420714 -14.65468,0.256978 z m 36.7148,-13.292928 c 0.55892,-0.664388 0.60914,-1.013024 0.20709,-1.439241 -0.63681,-0.675511 -3.35181,-0.917707 -4.31818,-0.385217 -0.84999,0.46838 -0.90433,1.951976 -0.0912,2.491777 1.02736,0.682135 3.38151,0.30828 4.20223,-0.667319 z m 28.41856,0.418081 c 0.87289,-1.082978 0.60478,-2.254426 -0.58269,-2.54608 -2.58622,-0.635234 -4.99461,0.963191 -3.75971,2.495247 0.72831,0.903593 3.62764,0.937549 4.3424,0.05084 z m -57.40202,-0.08506 c 1.76383,-1.171132 -0.54477,-3.123258 -2.96969,-2.511108 -1.02343,0.258355 -1.26933,0.528421 -1.26933,1.394445 0,0.590708 0.14459,1.169981 0.3212,1.287255 0.53888,0.357785 3.30332,0.23743 3.91784,-0.170587 z m 15.63125,-2.864453 c 0.74508,-0.258464 0.84298,-0.842638 0.84298,-5.02956 0,-2.605421 0.14091,-6.054557 0.31299,-7.664778 l 0.31299,-2.927635 h -4.16657 -4.16665 v 8.096212 8.096228 l 3.01068,-0.138905 c 1.65588,-0.07642 3.38998,-0.270616 3.8536,-0.431449 z m 29.2634,-7.626115 v -7.995858 h -4.09447 -4.09446 v 7.995858 7.995862 h 4.09446 4.09447 z m -45.38722,-8.813567 c 1.21405,-0.56459 1.41157,-1.794574 0.37952,-2.363273 -0.38008,-0.209442 -1.40972,-0.335017 -2.2881,-0.279038 -1.46598,0.09336 -1.60925,0.200412 -1.74673,1.304249 -0.12548,1.006171 0.0329,1.250886 0.96336,1.49895 1.508,0.401598 1.47876,0.403354 2.69195,-0.160769 z m 57.18673,0.178565 c 1.1,-0.277688 1.24526,-0.475535 1.11516,-1.519216 -0.13707,-1.101008 -0.28124,-1.208326 -1.74654,-1.301715 -0.87835,-0.05597 -1.90796,0.06968 -2.28807,0.279037 -1.03206,0.568699 -0.8345,1.798682 0.37946,2.363273 1.26873,0.590045 0.98834,0.570331 2.53999,0.178563 z m -27.77034,-1.261932 c 0.20925,-0.983822 -1.02382,-1.617099 -3.14848,-1.617099 -1.42454,0 -1.59389,0.09521 -1.59389,0.895542 0,1.221789 0.88275,1.710159 2.88816,1.597813 1.37451,-0.07702 1.71888,-0.239782 1.85421,-0.876256 z"
       id="path1880" />
    <text
       xml:space="preserve"
       style="font-style:normal;font-weight:normal;font-size:78.7767px;line-height:1.25;font-family:sans-serif;fill:#5f5e58;fill-opacity:1;stroke:none;stroke-width:1.23089"
       x="12.165742"
       y="77.691505"
       id="text27137"
       transform="scale(0.72393153,1.3813461)"><tspan
         sodipodi:role="line"
         id="tspan27135"
         style="font-style:normal;font-variant:normal;font-weight:normal;font-stretch:normal;font-size:52.5178px;font-family:'Wide Latin';-inkscape-font-specification:'Wide Latin';fill:#5f5e58;fill-opacity:1;stroke-width:1.23089"
         x="12.165742"
         y="77.691505">The Digital Stockade</tspan></text>
    <path
       style="fill:#5f5e58;fill-opacity:1;stroke-width:3.49519;stroke-miterlimit:4;stroke-dasharray:none"
       d="m 78.133737,51.080169 v 2.925984 H 173.5787 269.02374 V 51.080169 48.154161 H 173.5787 78.133737 Z"
       id="path49380-8" />
    <path
       style="fill:#5f5e58;fill-opacity:1;stroke-width:3.49519;stroke-miterlimit:4;stroke-dasharray:none"
       d="m 391.19332,50.447426 v 2.925984 h 95.44498 95.44504 V 50.447426 47.521418 H 486.6383 391.19332 Z"
       id="path49380-8-3" />
  </g>
  <metadata
     id="metadata970">
    <rdf:RDF>
      <cc:Work
         rdf:about="">
        <dc:title>The Digital Stockade Logo</dc:title>
      </cc:Work>
    </rdf:RDF>
  </metadata>
</svg>
