<?xml version="1.0" encoding="UTF-8" standalone="no"?>
<!-- Created with Inkscape (http://www.inkscape.org/) -->

<svg
   width="480"
   height="480"
   viewBox="0 0 127 127"
   version="1.1"
   id="svg22507"
   inkscape:version="1.1.1 (3bf5ae0d25, 2021-09-20)"
   sodipodi:docname="DS-logo-full.svg"
   xmlns:inkscape="http://www.inkscape.org/namespaces/inkscape"
   xmlns:sodipodi="http://sodipodi.sourceforge.net/DTD/sodipodi-0.dtd"
   xmlns="http://www.w3.org/2000/svg"
   xmlns:svg="http://www.w3.org/2000/svg"
   xmlns:rdf="http://www.w3.org/1999/02/22-rdf-syntax-ns#"
   xmlns:cc="http://creativecommons.org/ns#"
   xmlns:dc="http://purl.org/dc/elements/1.1/">
  <title
     id="title972">The Digital Stockade Logo</title>
  <sodipodi:namedview
     id="namedview22509"
     pagecolor="#ffffff"
     bordercolor="#666666"
     borderopacity="1.0"
     inkscape:pageshadow="2"
     inkscape:pageopacity="0.0"
     inkscape:pagecheckerboard="0"
     inkscape:document-units="px"
     showgrid="true"
     units="px"
     inkscape:zoom="0.27464868"
     inkscape:cx="1205.176"
     inkscape:cy="340.43491"
     inkscape:window-width="1920"
     inkscape:window-height="1057"
     inkscape:window-x="1912"
     inkscape:window-y="-8"
     inkscape:window-maximized="1"
     inkscape:current-layer="layer1">
    <inkscape:grid
       type="xygrid"
       id="grid22623" />
  </sodipodi:namedview>
  <defs
     id="defs22504">
    <marker
       style="overflow:visible"
       id="Arrow1Lend"
       refX="0"
       refY="0"
       orient="auto"
       inkscape:stockid="Arrow1Lend"
       inkscape:isstock="true">
      <path
         transform="matrix(-0.8,0,0,-0.8,-10,0)"
         style="fill:context-stroke;fill-rule:evenodd;stroke:context-stroke;stroke-width:1pt"
         d="M 0,0 5,-5 -12.5,0 5,5 Z"
         id="path56964" />
    </marker>
    <marker
       style="overflow:visible"
       id="Arrow1Lstart"
       refX="0"
       refY="0"
       orient="auto"
       inkscape:stockid="Arrow1Lstart"
       inkscape:isstock="true">
      <path
         transform="matrix(0.8,0,0,0.8,10,0)"
         style="fill:context-stroke;fill-rule:evenodd;stroke:context-stroke;stroke-width:1pt"
         d="M 0,0 5,-5 -12.5,0 5,5 Z"
         id="path56961" />
    </marker>
  </defs>
  <g
     inkscape:label="Layer 1"
     inkscape:groupmode="layer"
     id="layer1">
    <path
       style="fill:#5f5e58;fill-opacity:1;stroke:#2f4f4f;stroke-width:1.0917;stroke-opacity:1"
       d="M 10.583333,95.25 C 4.1954671,95.023032 4.1838379,95.020077 4.1439804,93.476058 4.0149148,88.44819 2.7907312,75.800153 2.3523745,74.957178 2.066974,74.408091 1.3864313,73.958803 0.84022925,73.958803 c -1.19263101,0 -2.50729815,-1.762999 -2.50729815,-3.362388 0,-0.635469 0.83500302,-1.759291 1.85545238,-2.497403 C 2.7926821,66.215308 3.7237378,60.908205 3.2637902,50.568494 2.8815088,41.979838 2.3386636,40.001227 -0.17509727,38.040397 -2.247679,36.423727 -2.0422769,34.967688 0.58792892,32.630961 2.5653514,30.874209 2.9115463,30.046611 3.4006486,25.907797 3.8021668,22.506385 4.5274063,20.311526 5.9953235,18.050264 7.9006493,15.115386 14.774097,7.0010873 18.076737,3.7879008 l 1.46589,-1.4262659 1.436659,1.4262659 c 0.790197,0.7844082 3.887544,4.6352605 6.882985,8.5574242 5.656577,7.40656 7.770411,11.67161 7.770411,15.678067 0,1.292272 0.394565,2.657633 0.877651,3.034193 0.522301,0.407397 3.039255,0.684559 6.216643,0.684559 h 5.338949 v -5.375325 c 0,-5.154379 0.120554,-5.559361 2.942876,-9.852466 2.774693,-4.221319 11.158804,-13.3031861 12.27051,-13.2916669 0.742874,0.00732 11.661967,13.2054769 13.056185,15.7809379 0.650429,1.201413 1.465487,4.324634 1.811289,6.940504 0.345531,2.615873 0.814601,4.990538 1.041572,5.277078 0.227363,0.286443 2.690803,0.520938 5.475219,0.520938 5.757436,0 5.459589,0.299169 6.069801,-6.099357 0.202765,-2.125837 1.110671,-4.851544 2.280349,-6.845974 2.076287,-3.539855 12.554554,-16.1527171 13.413324,-16.1457195 0.95481,0.00732 8.96311,9.3103565 11.6064,13.4822205 2.21486,3.495797 2.69777,4.955478 3.09724,9.360795 0.48913,5.396349 1.4181,6.818533 4.45379,6.818533 1.8287,0 2.93197,1.19737 2.93197,3.181995 0,2.036449 -0.89339,2.817068 -3.89712,3.405133 -3.25838,0.637915 -3.62367,2.248282 -3.10004,13.665477 0.638,13.91019 0.61733,13.840848 4.53115,15.149517 2.53909,0.848975 3.19736,1.358325 3.19736,2.474177 0,1.417236 -2.51644,3.410655 -5.11882,4.054922 -2.2475,0.556448 -2.92625,3.487515 -2.92625,12.636217 v 8.757572 l -4.57105,-0.0018 c -2.51406,-8.96e-4 -9.26097,-0.169327 -14.99299,-0.374022 l -10.422031,-0.3717 -0.0033,-4.047376 C 91.21121,88.616381 90.996653,83.906927 90.736189,80.376982 L 90.261931,73.958904 H 84.157155 78.052302 V 84.798172 95.637599 H 63.059457 48.066481 V 84.798172 73.958742 h -6.108492 -6.108352 l -0.408439,9.270578 c -0.434454,9.86076 -0.682079,10.959281 -2.607088,11.562258 -1.576951,0.493995 -14.025976,0.750435 -22.250166,0.458378 z M 66.32734,71.539135 c 0.848605,-1.185082 0.924854,-1.806952 0.314424,-2.567203 -0.966869,-1.204924 -5.089046,-1.636934 -6.556288,-0.687121 -1.290536,0.83546 -1.373031,3.48178 -0.138471,4.444634 1.55985,1.216738 5.134146,0.549885 6.380237,-1.19031 z m 43.14785,0.745739 c 1.3253,-1.93173 0.91823,-4.021265 -0.8847,-4.541494 -3.92665,-1.13308 -7.58331,1.718063 -5.70836,4.450822 1.10579,1.611758 5.50784,1.672325 6.59306,0.09068 z M 22.32181,72.133151 c 2.678031,-2.088973 -0.827123,-5.571019 -4.508872,-4.479115 -1.553866,0.460833 -1.927222,0.942556 -1.927222,2.487301 0,1.053657 0.219527,2.086918 0.487675,2.296102 0.818186,0.638188 5.015424,0.423509 5.948441,-0.304279 z m 23.732895,-5.109384 c 1.131248,-0.461027 1.279899,-1.503029 1.279899,-8.971329 0,-4.647341 0.213936,-10.799636 0.475207,-13.67182 l 0.475206,-5.222082 h -6.326091 -6.326211 v 14.441379 14.441406 l 4.571106,-0.247768 c 2.51412,-0.136311 5.147007,-0.482703 5.850917,-0.769584 z M 90.485262,53.420911 V 39.158536 H 84.26864 78.05203 v 14.262375 14.262382 h 6.21661 6.216622 z M 21.573945,37.699972 c 1.843289,-1.00707 2.143185,-3.201019 0.576218,-4.215418 -0.577068,-0.373586 -2.140373,-0.597577 -3.474015,-0.497726 -2.225789,0.166528 -2.44331,0.357479 -2.652058,2.326415 -0.190514,1.794728 0.04992,2.231231 1.462675,2.673708 2.28959,0.716338 2.245188,0.719471 4.08718,-0.286767 z m 86.826495,0.318509 c 1.67013,-0.495317 1.89068,-0.84822 1.69315,-2.709855 -0.20811,-1.963891 -0.42702,-2.155317 -2.65177,-2.321896 -1.3336,-0.09983 -2.89685,0.12429 -3.47397,0.497724 -1.56698,1.0144 -1.26703,3.208345 0.57613,4.215419 1.92632,1.052474 1.50059,1.01731 3.85646,0.318506 z M 66.236791,35.767548 c 0.317705,-1.754864 -1.554466,-2.884452 -4.780333,-2.884452 -2.162879,0 -2.419997,0.169828 -2.419997,1.597395 0,2.179331 1.340279,3.050447 4.385093,2.850053 2.086902,-0.137383 2.60977,-0.427705 2.815237,-1.562996 z"
       id="path1880" />
    <path
       style="fill:#5f5e58;fill-opacity:1;stroke-width:2.85527;stroke-miterlimit:4;stroke-dasharray:none"
       d="m -0.39000233,102.90735 v 2.92598 H 63.304971 127 v -2.92598 -2.926009 H 63.304971 -0.39000233 Z"
       id="path49380-8" />
  </g>
  <metadata
     id="metadata970">
    <rdf:RDF>
      <cc:Work
         rdf:about="">
        <dc:title>The Digital Stockade Logo</dc:title>
      </cc:Work>
    </rdf:RDF>
  </metadata>
</svg>
