<?xml version="1.0" encoding="UTF-8" standalone="no"?>
<!-- Created with Inkscape (http://www.inkscape.org/) -->

<svg
   width="2560"
   height="480"
   viewBox="0 0 677.33334 127"
   version="1.1"
   id="svg22507"
   inkscape:version="1.1.1 (3bf5ae0d25, 2021-09-20)"
   sodipodi:docname="DS-logo-full.svg"
   xmlns:inkscape="http://www.inkscape.org/namespaces/inkscape"
   xmlns:sodipodi="http://sodipodi.sourceforge.net/DTD/sodipodi-0.dtd"
   xmlns="http://www.w3.org/2000/svg"
   xmlns:svg="http://www.w3.org/2000/svg"
   xmlns:rdf="http://www.w3.org/1999/02/22-rdf-syntax-ns#"
   xmlns:cc="http://creativecommons.org/ns#"
   xmlns:dc="http://purl.org/dc/elements/1.1/">
  <title
     id="title972">The Digital Stockade Logo</title>
  <sodipodi:namedview
     id="namedview22509"
     pagecolor="#ffffff"
     bordercolor="#666666"
     borderopacity="1.0"
     inkscape:pageshadow="2"
     inkscape:pageopacity="0.0"
     inkscape:pagecheckerboard="0"
     inkscape:document-units="px"
     showgrid="true"
     units="px"
     inkscape:zoom="0.27464868"
     inkscape:cx="2237.4038"
     inkscape:cy="340.43491"
     inkscape:window-width="1920"
     inkscape:window-height="1057"
     inkscape:window-x="1912"
     inkscape:window-y="-8"
     inkscape:window-maximized="1"
     inkscape:current-layer="layer1">
    <inkscape:grid
       type="xygrid"
       id="grid22623" />
  </sodipodi:namedview>
  <defs
     id="defs22504">
    <marker
       style="overflow:visible"
       id="Arrow1Lend"
       refX="0"
       refY="0"
       orient="auto"
       inkscape:stockid="Arrow1Lend"
       inkscape:isstock="true">
      <path
         transform="matrix(-0.8,0,0,-0.8,-10,0)"
         style="fill:context-stroke;fill-rule:evenodd;stroke:context-stroke;stroke-width:1pt"
         d="M 0,0 5,-5 -12.5,0 5,5 Z"
         id="path56964" />
    </marker>
    <marker
       style="overflow:visible"
       id="Arrow1Lstart"
       refX="0"
       refY="0"
       orient="auto"
       inkscape:stockid="Arrow1Lstart"
       inkscape:isstock="true">
      <path
         transform="matrix(0.8,0,0,0.8,10,0)"
         style="fill:context-stroke;fill-rule:evenodd;stroke:context-stroke;stroke-width:1pt"
         d="M 0,0 5,-5 -12.5,0 5,5 Z"
         id="path56961" />
    </marker>
  </defs>
  <g
     inkscape:label="Layer 1"
     inkscape:groupmode="layer"
     id="layer1">
    <path
       style="fill:#5f5e58;fill-opacity:1;stroke:#2f4f4f;stroke-width:1.44185;stroke-opacity:1"
       d="m 251.58422,111.14204 c -9.97904,-0.25343 -9.99721,-0.25673 -10.05947,-1.98077 -0.20162,-5.61408 -2.11403,-19.736782 -2.79881,-20.678042 -0.44586,-0.613107 -1.50899,-1.114778 -2.36225,-1.114778 -1.86312,0 -3.91687,-1.968551 -3.91687,-3.754417 0,-0.709559 1.30443,-1.96441 2.89856,-2.788581 4.0684,-2.103329 5.52288,-8.0292 4.80435,-19.574444 -0.59719,-9.590029 -1.44522,-11.79933 -5.37218,-13.988779 -3.23775,-1.805161 -2.91687,-3.430963 1.192,-6.040135 3.0891,-1.961576 3.62991,-2.885666 4.39398,-7.507035 0.62725,-3.797991 1.76021,-6.248754 4.05337,-8.773661 2.97647,-3.277063 13.71406,-12.337428 18.8734,-15.9252474 l 2.28999,-1.5925577 2.24433,1.5925577 c 1.23443,0.8758644 6.07306,5.1756964 10.7525,9.5551554 8.83662,8.270109 12.13881,13.032432 12.13881,17.506011 0,1.442941 0.61638,2.967493 1.37106,3.387957 0.81592,0.454897 4.74788,0.764374 9.71154,0.764374 h 8.34043 V 34.2276 c 0,-5.755341 0.18832,-6.20754 4.59732,-11.001189 4.33458,-4.713492 17.43211,-14.8542371 19.16881,-14.8413748 1.1605,0.00817 18.21815,14.7451358 20.39618,17.6208768 1.01609,1.341488 2.28935,4.828852 2.82957,7.749713 0.53978,2.920865 1.27255,5.572398 1.62712,5.892347 0.35518,0.319839 4.20353,0.581675 8.5533,0.581675 8.99419,0 8.5289,0.33405 9.48216,-6.810496 0.31676,-2.373693 1.73507,-5.417198 3.56232,-7.644163 3.24355,-3.952576 19.61253,-18.0360022 20.9541,-18.0281888 1.49157,0.00817 14.00203,10.3958738 18.13134,15.0541448 3.46003,3.903382 4.21442,5.53325 4.83846,10.452194 0.7641,6.025523 2.21534,7.613523 6.95765,7.613523 2.85676,0 4.58027,1.336974 4.58027,3.552991 0,2.273883 -1.39564,3.145516 -6.08802,3.802146 -5.09018,0.712291 -5.66083,2.510414 -4.84283,15.258769 0.99666,15.532013 0.96438,15.454586 7.0785,16.915836 3.96652,0.947959 4.99486,1.516695 4.99486,2.762646 0,1.582476 -3.93115,3.808312 -7.99655,4.527696 -3.511,0.621325 -4.57133,3.894134 -4.57133,14.109504 v 9.77864 l -7.14083,-0.002 c -3.92743,-0.001 -14.46736,-0.18907 -23.42183,-0.41763 l -16.28114,-0.41504 -0.005,-4.51927 c -0.003,-2.48595 -0.33858,-7.744491 -0.74548,-11.686001 l -0.74087,-7.166377 h -9.53679 -9.53691 v 12.103036 12.103222 h -23.4217 -23.42181 V 99.471608 87.368382 h -9.54259 -9.54239 L 290.4168,97.71984 c -0.67869,11.01045 -1.06553,12.23705 -4.07275,12.91033 -2.46349,0.55159 -21.91118,0.83793 -34.75889,0.51182 z m 87.08245,-26.475373 c 1.32568,-1.323254 1.44479,-2.017629 0.49119,-2.86652 -1.51043,-1.345408 -7.95004,-1.827787 -10.24213,-0.767233 -2.01606,0.932867 -2.14494,3.887729 -0.21632,4.962844 2.43677,1.358601 8.02048,0.613998 9.96711,-1.329091 z m 67.40492,0.832687 c 2.07038,-2.156955 1.43445,-4.490115 -1.38206,-5.070999 -6.13416,-1.265188 -11.84654,1.918377 -8.91752,4.969755 1.72745,1.799676 8.60426,1.867306 10.29958,0.101258 z m -136.1497,-0.169413 c 4.18357,-2.332531 -1.29212,-6.220558 -7.04369,-5.001346 -2.42744,0.514563 -3.01068,1.05245 -3.01068,2.777301 0,1.176506 0.34294,2.330238 0.76184,2.563811 1.27815,0.712596 7.83502,0.472887 9.29257,-0.339756 z m 37.07518,-5.705099 c 1.76722,-0.51478 1.99943,-1.678272 1.99943,-10.017318 0,-5.189187 0.33421,-12.058793 0.74237,-15.265851 l 0.74236,-5.830938 h -9.88253 -9.88271 v 16.125134 16.125166 l 7.14091,-0.276656 c 3.92752,-0.152205 8.04057,-0.538983 9.14021,-0.859312 z m 69.40875,-15.188847 v -15.92526 h -9.71151 -9.7115 v 15.92526 15.925268 h 9.7115 9.71151 z M 268.75358,46.882113 c 2.87956,-1.124487 3.34806,-3.574233 0.90017,-4.706904 -0.9015,-0.417143 -3.34366,-0.66725 -5.42706,-0.555757 -3.47709,0.185944 -3.81691,0.399159 -4.143,2.597658 -0.29762,2.00398 0.078,2.491376 2.28496,2.985442 3.57677,0.799858 3.50741,0.803356 6.38493,-0.320202 z m 135.63905,0.355646 c 2.60906,-0.553068 2.9536,-0.947118 2.64501,-3.025805 -0.3251,-2.192865 -0.66706,-2.40661 -4.14255,-2.592611 -2.08332,-0.111475 -4.52541,0.138781 -5.42698,0.555755 -2.44791,1.132671 -1.97933,3.582414 0.90003,4.706904 3.00925,1.175186 2.34419,1.135921 6.02449,0.355642 z m -65.86742,-2.513376 c 0.49632,-1.959467 -2.42835,-3.220757 -7.46776,-3.220757 -3.37882,0 -3.78049,0.189628 -3.78049,1.78364 0,2.433424 2.09377,3.406105 6.85033,3.182347 3.26014,-0.1534 4.07695,-0.477572 4.39792,-1.74523 z"
       id="path1880" />
    <path
       style="fill:#5f5e58;fill-opacity:1;stroke-width:3.49519;stroke-miterlimit:4;stroke-dasharray:none"
       d="M 10.193331,92.324016 V 95.25 h 95.444959 95.44504 V 92.324016 89.398008 H 105.63829 10.193331 Z"
       id="path49380-8" />
    <path
       style="fill:#5f5e58;fill-opacity:1;stroke-width:3.49519;stroke-miterlimit:4;stroke-dasharray:none"
       d="M 465.27665,92.324016 V 95.25 h 95.44498 95.44504 v -2.925984 -2.926008 h -95.44504 -95.44498 z"
       id="path49380-8-3" />
  </g>
  <metadata
     id="metadata970">
    <rdf:RDF>
      <cc:Work
         rdf:about="">
        <dc:title>The Digital Stockade Logo</dc:title>
      </cc:Work>
    </rdf:RDF>
  </metadata>
</svg>
