<?xml version="1.0" encoding="UTF-8" standalone="no"?>
<!-- Created with Inkscape (http://www.inkscape.org/) -->

<svg
   width="649"
   height="649"
   viewBox="0 0 171.71458 171.71458"
   version="1.1"
   id="svg22507"
   inkscape:version="1.1.1 (3bf5ae0d25, 2021-09-20)"
   sodipodi:docname="DS-symbol.svg"
   inkscape:export-filename="C:\webdev\thedigitalstockade.github.io\assets\img\branding\DS-logo-text.png"
   inkscape:export-xdpi="96"
   inkscape:export-ydpi="96"
   xmlns:inkscape="http://www.inkscape.org/namespaces/inkscape"
   xmlns:sodipodi="http://sodipodi.sourceforge.net/DTD/sodipodi-0.dtd"
   xmlns="http://www.w3.org/2000/svg"
   xmlns:svg="http://www.w3.org/2000/svg"
   xmlns:rdf="http://www.w3.org/1999/02/22-rdf-syntax-ns#"
   xmlns:cc="http://creativecommons.org/ns#"
   xmlns:dc="http://purl.org/dc/elements/1.1/">
  <title
     id="title972">The Digital Stockade Symbol</title>
  <sodipodi:namedview
     id="namedview22509"
     pagecolor="#ffffff"
     bordercolor="#666666"
     borderopacity="1.0"
     inkscape:pageshadow="2"
     inkscape:pageopacity="0.0"
     inkscape:pagecheckerboard="0"
     inkscape:document-units="px"
     showgrid="true"
     units="px"
     inkscape:zoom="0.54929736"
     inkscape:cx="546.15227"
     inkscape:cy="343.16568"
     inkscape:window-width="1920"
     inkscape:window-height="1057"
     inkscape:window-x="1912"
     inkscape:window-y="-8"
     inkscape:window-maximized="1"
     inkscape:current-layer="layer1"
     fit-margin-top="0"
     fit-margin-left="0"
     fit-margin-right="0"
     fit-margin-bottom="0">
    <inkscape:grid
       type="xygrid"
       id="grid22623"
       originx="-9.3083999"
       originy="-0.28238972" />
  </sodipodi:namedview>
  <defs
     id="defs22504">
    <marker
       style="overflow:visible"
       id="Arrow1Lend"
       refX="0"
       refY="0"
       orient="auto"
       inkscape:stockid="Arrow1Lend"
       inkscape:isstock="true">
      <path
         transform="matrix(-0.8,0,0,-0.8,-10,0)"
         style="fill:context-stroke;fill-rule:evenodd;stroke:context-stroke;stroke-width:1pt"
         d="M 0,0 5,-5 -12.5,0 5,5 Z"
         id="path56964" />
    </marker>
    <marker
       style="overflow:visible"
       id="Arrow1Lstart"
       refX="0"
       refY="0"
       orient="auto"
       inkscape:stockid="Arrow1Lstart"
       inkscape:isstock="true">
      <path
         transform="matrix(0.8,0,0,0.8,10,0)"
         style="fill:context-stroke;fill-rule:evenodd;stroke:context-stroke;stroke-width:1pt"
         d="M 0,0 5,-5 -12.5,0 5,5 Z"
         id="path56961" />
    </marker>
  </defs>
  <g
     inkscape:label="Layer 1"
     inkscape:groupmode="layer"
     id="layer1"
     transform="translate(-9.3083999,-0.28238973)">
    <path
       style="fill:#5f5e58;fill-opacity:1;stroke:#2f4f4f;stroke-width:1.45184;stroke-opacity:1"
       d="m 31.988923,158.15619 c -7.375539,-0.34764 -7.389037,-0.35217 -7.434992,-2.71723 -0.149671,-7.70141 -1.562499,-27.07496 -2.068575,-28.36617 -0.329296,-0.84108 -1.115352,-1.52927 -1.746002,-1.52927 -1.377002,0 -2.894965,-2.70046 -2.894965,-5.15031 0,-0.97337 0.964147,-2.69478 2.142416,-3.82538 3.006991,-2.88535 4.081953,-11.01446 3.550879,-26.852268 -0.441162,-13.155631 -1.068137,-16.186349 -3.970612,-19.189838 -2.392986,-2.476329 -2.155811,-4.7066 0.881011,-8.28587 2.283116,-2.690897 2.682787,-3.958562 3.24758,-10.298162 0.463219,-5.210094 1.3009,-8.572056 2.995854,-12.035729 2.199875,-4.495479 10.13611,-16.924506 13.949275,-21.846286 l 1.692541,-2.184677 1.658804,2.184677 c 0.912414,1.201522 4.48866,7.100039 7.947173,13.107781 6.531233,11.344954 8.97185,17.877912 8.97185,24.014781 0,1.979429 0.455346,4.070809 1.013625,4.647605 0.603032,0.624027 3.509278,1.04857 7.177855,1.04857 h 6.164342 v -8.23362 c 0,-7.895184 0.13862,-8.515516 3.397839,-15.091451 3.203679,-6.465979 12.884117,-20.377073 14.167694,-20.359429 0.858053,0.01117 13.465045,20.22741 15.074805,24.172357 0.75087,1.840252 1.69202,6.624221 2.09132,10.63107 0.39862,4.006849 0.94036,7.644223 1.20263,8.083131 0.26208,0.438764 3.10683,0.797942 6.32169,0.797942 6.64757,0 6.30373,0.458229 7.00828,-9.342653 0.23318,-3.256231 1.28247,-7.431317 2.63294,-10.486277 2.3973,-5.422153 14.49547,-24.741821 15.4872,-24.731105 1.10273,0.01117 10.34886,14.261081 13.40081,20.651311 2.55726,5.354665 3.11496,7.59052 3.57613,14.338331 0.56515,8.265827 1.63734,10.444252 5.14242,10.444252 2.11138,0 3.38519,1.834064 3.38519,4.874003 0,3.119309 -1.0317,4.315015 -4.4996,5.215782 -3.76216,0.977126 -4.18388,3.443796 -3.57945,20.932022 0.73633,21.30684 0.71386,21.20063 5.23187,23.20518 2.93163,1.30041 3.69173,2.08059 3.69173,3.7898 0,2.17084 -2.90557,5.22425 -5.91035,6.2111 -2.59497,0.85234 -3.37868,5.34198 -3.37868,19.35546 v 13.41436 l -5.27776,-0.003 c -2.90278,-0.001 -10.6928,-0.25938 -17.31112,-0.57287 l -12.03326,-0.56936 -0.006,-6.19954 c 0,-3.41023 -0.24998,-10.62391 -0.55171,-16.03088 l -0.54814,-9.83085 h -7.04866 -7.04871 v 16.60323 16.60323 H 92.575226 75.264266 v -16.60326 -16.60323 h -7.05291 -7.052704 l -0.472673,14.20014 c -0.502083,15.10416 -0.787002,16.7868 -3.010248,17.71042 -1.820633,0.75671 -16.194476,1.14949 -25.690157,0.70212 z m 64.362591,-36.31897 c 0.979795,-1.81524 1.067706,-2.76779 0.362902,-3.9323 -1.116241,-1.84564 -5.875789,-2.50736 -7.56996,-1.0525 -1.490082,1.27972 -1.585355,5.3332 -0.160162,6.80804 1.801095,1.86373 5.927997,0.84229 7.366715,-1.82324 z m 49.818916,1.14227 c 1.53019,-2.95891 1.05988,-6.15954 -1.02151,-6.95641 -4.53377,-1.73559 -8.75579,2.63164 -6.5909,6.81753 1.2768,2.46879 6.35941,2.56158 7.61241,0.139 z M 45.542256,122.74713 c 3.092015,-3.19977 -0.954956,-8.53337 -5.205977,-6.86086 -1.794215,0.70585 -2.225188,1.44375 -2.225188,3.80991 0,1.61393 0.253668,3.19662 0.562691,3.51704 0.944664,0.97754 5.790822,0.64873 6.868156,-0.46609 z m 27.402329,-7.82626 c 1.306056,-0.70619 1.477625,-2.30227 1.477625,-13.74178 0,-7.118542 0.247361,-16.542293 0.54809,-20.941732 l 0.548726,-7.998896 H 68.214803 60.910579 V 94.35896 116.4795 l 5.277816,-0.37951 c 2.9028,-0.20877 5.942776,-0.73938 6.755553,-1.1788 z M 124.24448,94.084764 V 72.238439 h -7.17785 -7.17777 v 21.84631 21.846331 h 7.17777 7.17785 z M 44.678733,70.004292 c 2.128293,-1.542572 2.474541,-4.903142 0.665578,-6.456939 -0.666327,-0.572228 -2.471356,-0.915335 -4.011172,-0.762415 -2.569863,0.255091 -2.821063,0.547602 -3.062074,3.563469 -0.219531,2.749066 0.05515,3.417675 1.688806,4.095435 2.643619,1.097245 2.592349,1.102043 4.719124,-0.43924 z m 100.250717,0.48786 c 1.92835,-0.758682 2.1829,-1.29926 1.95496,-4.150807 -0.24052,-3.008178 -0.49314,-3.301394 -3.06181,-3.55655 -1.53971,-0.152928 -3.34468,0.190426 -4.0109,0.762416 -1.80933,1.553804 -1.46301,4.914367 0.66553,6.456946 2.2242,1.612116 1.73257,1.55826 4.45263,0.487861 z M 96.246951,67.044297 c 0.366048,-2.687998 -1.794858,-4.418237 -5.519463,-4.418237 -2.497339,0 -2.794134,0.260177 -2.794134,2.4468 0,3.338168 1.547478,4.672503 5.063012,4.365543 2.409596,-0.210445 3.01319,-0.655168 3.250585,-2.394106 z"
       id="path1880" />
  </g>
  <metadata
     id="metadata970">
    <rdf:RDF>
      <cc:Work
         rdf:about="">
        <dc:title>The Digital Stockade Symbol</dc:title>
      </cc:Work>
    </rdf:RDF>
  </metadata>
</svg>
